REM DIRINDEX 1
REM DIRNAME cjc118
TITLE ""
FILE "19_dokkai_1_q56_60.mp3" MP3
  TRACK 01 AUDIO
    TITLE "0:"
    INDEX 01 00:00:00
  TRACK 02 AUDIO
    TITLE "1:cjc118_0834"
    INDEX 01 00:00:13
  TRACK 03 AUDIO
    TITLE "1:cjc118_0835"
    INDEX 01 00:04:62
  TRACK 04 AUDIO
    TITLE "1:cjc118_0836"
    INDEX 01 00:09:65
  TRACK 05 AUDIO
    TITLE "1:cjc118_0837"
    INDEX 01 00:11:56
  TRACK 06 AUDIO
    TITLE "1:cjc118_0838"
    INDEX 01 00:17:69
  TRACK 07 AUDIO
    TITLE "1:cjc118_0839"
    INDEX 01 00:24:16
  TRACK 08 AUDIO
    TITLE "1:cjc118_0840"
    INDEX 01 00:31:71
  TRACK 09 AUDIO
    TITLE "1:cjc118_0841"
    INDEX 01 00:36:15
  TRACK 10 AUDIO
    TITLE "1:cjc118_0842"
    INDEX 01 00:37:42
  TRACK 11 AUDIO
    TITLE "1:cjc118_0843"
    INDEX 01 00:40:50
  TRACK 12 AUDIO
    TITLE "1:cjc118_0844"
    INDEX 01 00:47:19
  TRACK 13 AUDIO
    TITLE "1:cjc118_0845"
    INDEX 01 00:56:08
  TRACK 14 AUDIO
    TITLE "1:cjc118_0846"
    INDEX 01 01:05:01
  TRACK 15 AUDIO
    TITLE "1:cjc118_0847"
    INDEX 01 01:06:65
  TRACK 16 AUDIO
    TITLE "1:cjc118_0848"
    INDEX 01 01:15:62
  TRACK 17 AUDIO
    TITLE "1:cjc118_0849"
    INDEX 01 01:22:52
  TRACK 18 AUDIO
    TITLE "1:cjc118_0850"
    INDEX 01 01:35:65
  TRACK 19 AUDIO
    TITLE "1:cjc118_0851"
    INDEX 01 01:47:17
  TRACK 20 AUDIO
    TITLE "1:cjc118_0852"
    INDEX 01 01:59:46
  TRACK 21 AUDIO
    TITLE "1:cjc118_0853"
    INDEX 01 02:05:25
  TRACK 22 AUDIO
    TITLE "1:cjc118_0854"
    INDEX 01 02:06:61
  TRACK 23 AUDIO
    TITLE "1:cjc118_0855"
    INDEX 01 02:08:17
  TRACK 24 AUDIO
    TITLE "1:cjc118_0856"
    INDEX 01 02:10:69
  TRACK 25 AUDIO
    TITLE "1:cjc118_0857"
    INDEX 01 02:12:03
  TRACK 26 AUDIO
    TITLE "1:cjc118_0858"
    INDEX 01 02:15:07
  TRACK 27 AUDIO
    TITLE "1:cjc118_0859"
    INDEX 01 02:16:21
  TRACK 28 AUDIO
    TITLE "1:cjc118_0860"
    INDEX 01 02:19:62
  TRACK 29 AUDIO
    TITLE "1:cjc118_0861"
    INDEX 01 02:21:06
  TRACK 30 AUDIO
    TITLE "1:cjc118_0862"
    INDEX 01 02:23:58
  TRACK 31 AUDIO
    TITLE "1:cjc118_0863"
    INDEX 01 02:25:02
  TRACK 32 AUDIO
    TITLE "1:cjc118_0864"
    INDEX 01 02:28:20
  TRACK 33 AUDIO
    TITLE "1:cjc118_0865"
    INDEX 01 02:30:13
  TRACK 34 AUDIO
    TITLE "1:cjc118_0866"
    INDEX 01 02:31:53
  TRACK 35 AUDIO
    TITLE "1:cjc118_0867"
    INDEX 01 02:36:21
  TRACK 36 AUDIO
    TITLE "1:cjc118_0868"
    INDEX 01 02:37:29
  TRACK 37 AUDIO
    TITLE "1:cjc118_0869"
    INDEX 01 02:39:29
  TRACK 38 AUDIO
    TITLE "1:cjc118_0870"
    INDEX 01 02:40:47
  TRACK 39 AUDIO
    TITLE "1:cjc118_0871"
    INDEX 01 02:42:55
  TRACK 40 AUDIO
    TITLE "1:cjc118_0872"
    INDEX 01 02:44:03
  TRACK 41 AUDIO
    TITLE "1:cjc118_0873"
    INDEX 01 02:46:14
  TRACK 42 AUDIO
    TITLE "1:cjc118_0874"
    INDEX 01 02:47:35
  TRACK 43 AUDIO
    TITLE "1:cjc118_0875"
    INDEX 01 02:49:18
  TRACK 44 AUDIO
    TITLE "1:cjc118_0876"
    INDEX 01 02:50:70
  TRACK 45 AUDIO
    TITLE "1:cjc118_0877"
    INDEX 01 02:52:30
  TRACK 46 AUDIO
    TITLE "1:cjc118_0878"
    INDEX 01 02:55:70
  TRACK 47 AUDIO
    TITLE "1:cjc118_0879"
    INDEX 01 02:57:02
  TRACK 48 AUDIO
    TITLE "1:cjc118_0880"
    INDEX 01 03:00:39
  TRACK 49 AUDIO
    TITLE "1:cjc118_0881"
    INDEX 01 03:01:45
  TRACK 50 AUDIO
    TITLE "1:cjc118_0882"
    INDEX 01 03:04:72
  TRACK 51 AUDIO
    TITLE "1:cjc118_0883"
    INDEX 01 03:06:15
  TRACK 52 AUDIO
    TITLE "1:cjc118_0884"
    INDEX 01 03:09:68
  TRACK 53 AUDIO
    TITLE "1:cjc118_0885"
    INDEX 01 03:11:02
  TRACK 54 AUDIO
    TITLE "1:cjc118_0886"
    INDEX 01 03:14:32
  TRACK 55 AUDIO
    TITLE "1:cjc118_0887"
    INDEX 01 03:16:15
  TRACK 56 AUDIO
    TITLE "1:cjc118_0888"
    INDEX 01 03:17:54
  TRACK 57 AUDIO
    TITLE "1:cjc118_0889"
    INDEX 01 03:22:04
  TRACK 58 AUDIO
    TITLE "1:cjc118_0890"
    INDEX 01 03:23:13
  TRACK 59 AUDIO
    TITLE "1:cjc118_0891"
    INDEX 01 03:25:16
  TRACK 60 AUDIO
    TITLE "1:cjc118_0892"
    INDEX 01 03:26:27
  TRACK 61 AUDIO
    TITLE "1:cjc118_0893"
    INDEX 01 03:28:73
  TRACK 62 AUDIO
    TITLE "1:cjc118_0894"
    INDEX 01 03:30:19
  TRACK 63 AUDIO
    TITLE "1:cjc118_0895"
    INDEX 01 03:32:16
  TRACK 64 AUDIO
    TITLE "1:cjc118_0896"
    INDEX 01 03:33:35
  TRACK 65 AUDIO
    TITLE "1:cjc118_0897"
    INDEX 01 03:35:26
  TRACK 66 AUDIO
    TITLE "1:cjc118_0898"
    INDEX 01 03:36:74
  TRACK 67 AUDIO
    TITLE "1:cjc118_0899"
    INDEX 01 03:38:24
  TRACK 68 AUDIO
    TITLE "1:cjc118_0900"
    INDEX 01 03:41:25
  TRACK 69 AUDIO
    TITLE "1:cjc118_0901"
    INDEX 01 03:42:36
  TRACK 70 AUDIO
    TITLE "1:cjc118_0902"
    INDEX 01 03:44:70
  TRACK 71 AUDIO
    TITLE "1:cjc118_0903"
    INDEX 01 03:46:12
  TRACK 72 AUDIO
    TITLE "1:cjc118_0904"
    INDEX 01 03:48:56
  TRACK 73 AUDIO
    TITLE "1:cjc118_0905"
    INDEX 01 03:50:00
  TRACK 74 AUDIO
    TITLE "1:cjc118_0906"
    INDEX 01 03:52:58
  TRACK 75 AUDIO
    TITLE "1:cjc118_0907"
    INDEX 01 03:54:00
  TRACK 76 AUDIO
    TITLE "0:"
    INDEX 01 03:56:05
